<?xml version="1.0" encoding="UTF-8"?>
<svg width="70px" height="30px" viewBox="0 0 70 30" version="1.1" xmlns="http://www.w3.org/2000/svg" xmlns:xlink="http://www.w3.org/1999/xlink">
    <!-- Generator: Sketch 63.1 (92452) - https://sketch.com -->
    <title>visa + american-express + mastercard Mask</title>
    <desc>Created with Sketch.</desc>
    <defs>
        <rect id="path-1" x="0" y="0" width="70" height="30"></rect>
    </defs>
    <g id="Page-1" stroke="none" stroke-width="1" fill="none" fill-rule="evenodd">
        <g id="visa-+-american-express-+-mastercard-Mask">
            <mask id="mask-2" fill="white">
                <use xlink:href="#path-1"></use>
            </mask>
            <use id="Mask" fill="#FFFFFF" xlink:href="#path-1"></use>
            <g id="american-express" mask="url(#mask-2)">
                <g transform="translate(4.000000, 4.000000)">
                    <polygon id="Path" fill="#2FABF7" fill-rule="nonzero" points="5 6 7 6 6 3"></polygon>
                    <path d="M32.6866256,3.125 C32.4947238,3 32.206871,3 31.9190183,3 L30,3 L30,5 L31.9190183,5 C32.206871,5 32.4947238,5 32.6866256,4.875 C32.8785275,4.75 32.9744784,4.375 32.9744784,4 C33.0704293,3.5 32.8785275,3.25 32.6866256,3.125 Z" id="Path" fill="#228FE0" fill-rule="nonzero"></path>
                    <path d="M53.5460751,0 L53.5460751,1.21212121 L52.9522184,0 L48.3003413,0 L48.3003413,1.21212121 L47.7064846,0 L41.3720137,0 C40.2832765,0 39.3924915,0.202020202 38.6006826,0.606060606 L38.6006826,0 L34.1467577,0 L34.1467577,0.606060606 C33.6518771,0.202020202 33.0580205,0 32.2662116,0 L16.331058,0 L15.2423208,2.52525253 L14.1535836,0 L9.10580205,0 L9.10580205,1.21212121 L8.51194539,0 L4.2559727,0 L2.27645051,4.74747475 L0,10 L2.27645051,10 L5.04778157,10 L5.64163823,8.38383838 L7.02730375,8.38383838 L7.62116041,10 L13.3617747,10 L13.3617747,8.78787879 L13.8566553,10 L16.7269625,10 L17.221843,8.78787879 L17.221843,10 L30.9795222,10 L30.9795222,7.37373737 L31.1774744,7.37373737 C31.3754266,7.37373737 31.3754266,7.37373737 31.3754266,7.67676768 L31.3754266,9.8989899 L38.5017065,9.8989899 L38.5017065,9.29292929 C39.0955631,9.5959596 39.9863481,9.8989899 41.1740614,9.8989899 L44.1433447,9.8989899 L44.7372014,8.28282828 L46.1228669,8.28282828 L46.7167235,9.8989899 L52.4573379,9.8989899 L52.4573379,8.38383838 L53.3481229,9.8989899 L58,9.8989899 L58,0 L53.5460751,0 L53.5460751,0 Z M20.0921502,8.48484848 L18.4095563,8.48484848 L18.4095563,2.92929293 L16.0341297,8.48484848 L14.5494881,8.48484848 L12.1740614,2.92929293 L12.1740614,8.48484848 L8.80887372,8.48484848 L8.11604096,6.96969697 L4.75085324,6.96969697 L4.15699659,8.58585859 L2.27645051,8.58585859 L5.24573379,1.41414141 L7.72013652,1.41414141 L10.4914676,8.18181818 L10.4914676,1.41414141 L13.1638225,1.41414141 L15.3412969,6.26262626 L17.3208191,1.41414141 L20.0921502,1.41414141 L20.0921502,8.48484848 Z M26.8225256,2.92929293 L22.9624573,2.92929293 L22.9624573,4.24242424 L26.7235495,4.24242424 L26.7235495,5.65656566 L22.9624573,5.65656566 L22.9624573,7.07070707 L26.8225256,7.07070707 L26.8225256,8.58585859 L21.2798635,8.58585859 L21.2798635,1.41414141 L26.8225256,1.41414141 L26.8225256,2.92929293 Z M34.2457338,5.85858586 C34.443686,6.26262626 34.5426621,6.56565657 34.5426621,7.17171717 L34.5426621,8.58585859 L32.8600683,8.58585859 L32.8600683,7.67676768 C32.8600683,7.27272727 32.8600683,6.66666667 32.5631399,6.26262626 C32.2662116,5.95959596 31.9692833,5.95959596 31.3754266,5.95959596 L29.5938567,5.95959596 L29.5938567,8.58585859 L27.9112628,8.58585859 L27.9112628,1.41414141 L31.6723549,1.41414141 C32.5631399,1.41414141 33.1569966,1.41414141 33.6518771,1.71717172 C34.1467577,2.02020202 34.443686,2.52525253 34.443686,3.33333333 C34.443686,4.44444444 33.7508532,5.05050505 33.2559727,5.25252525 C33.7508532,5.35353535 34.0477816,5.65656566 34.2457338,5.85858586 Z M37.2150171,8.48484848 L35.5324232,8.48484848 L35.5324232,1.31313131 L37.2150171,1.31313131 L37.2150171,8.48484848 Z M56.7133106,8.48484848 L54.337884,8.48484848 L51.1706485,3.13131313 L51.1706485,8.48484848 L47.8054608,8.48484848 L47.2116041,6.96969697 L43.7474403,6.96969697 L43.1535836,8.58585859 L41.2730375,8.58585859 C40.4812287,8.58585859 39.4914676,8.38383838 38.8976109,7.77777778 C38.3037543,7.17171717 38.0068259,6.36363636 38.0068259,5.05050505 C38.0068259,4.04040404 38.2047782,3.03030303 38.8976109,2.22222222 C39.3924915,1.61616162 40.2832765,1.41414141 41.3720137,1.41414141 L42.9556314,1.41414141 L42.9556314,2.92929293 L41.3720137,2.92929293 C40.778157,2.92929293 40.4812287,3.03030303 40.0853242,3.33333333 C39.7883959,3.63636364 39.5904437,4.24242424 39.5904437,4.94949495 C39.5904437,5.75757576 39.6894198,6.26262626 40.0853242,6.66666667 C40.3822526,6.96969697 40.778157,7.07070707 41.2730375,7.07070707 L41.9658703,7.07070707 L44.2423208,1.51515152 L46.7167235,1.51515152 L49.4880546,8.28282828 L49.4880546,1.51515152 L51.9624573,1.51515152 L54.8327645,6.46464646 L54.8327645,1.51515152 L56.5153584,1.51515152 L56.5153584,8.48484848 L56.7133106,8.48484848 L56.7133106,8.48484848 Z" id="Shape" fill="#0571C1" fill-rule="nonzero"></path>
                    <g id="Group" stroke-width="1" fill="none" fill-rule="evenodd" transform="translate(25.000000, 3.000000)">
                        <polygon id="Path" fill="#228FE0" fill-rule="nonzero" points="19.675 2.78405797 21.975 2.78405797 20.875 0.0246376812"></polygon>
                        <polygon id="Path" fill="#228FE0" fill-rule="nonzero" points="2.675 16.9753623 2.675 11.357971 0.075 14.1173913"></polygon>
                    </g>
                    <polygon id="Path" fill="#2FABF7" fill-rule="nonzero" points="17 15 17 16.2380952 20.7 16.2380952 20.7 17.5714286 17 17.5714286 17 19 21.1 19 23 17 21.2 15"></polygon>
                    <path d="M30.96875,15 L29,15 L29,17 L31.0625,17 C31.625,17 32,16.6666667 32,16 C31.90625,15.3333333 31.53125,15 30.96875,15 Z" id="SVGCleanerId_0" fill="#228FE0" fill-rule="nonzero"></path>
                    <path d="M62.5010183,16.5454545 L62.5010183,12 L61.3034623,12 L58.3095723,12 C57.4114053,12 56.712831,12.2020202 56.2138493,12.6060606 L56.2138493,12 L51.6232179,12 C50.9246436,12 50.0264766,12.2020202 49.6272912,12.6060606 L49.6272912,12 L41.5437882,12 L41.5437882,12.6060606 C40.9450102,12.1010101 39.8472505,12 39.3482688,12 L33.9592668,12 L33.9592668,12.6060606 C33.4602851,12.1010101 32.2627291,12 31.6639511,12 L25.6761711,12 L24.2790224,13.5151515 L22.9816701,12 L14,12 L14,21.8989899 L22.7820774,21.8989899 L24.1792261,20.3838384 L25.4765784,21.8989899 L30.8655804,21.8989899 L30.8655804,19.5757576 L31.5641548,19.5757576 C32.2627291,19.5757576 33.1608961,19.5757576 33.8594705,19.2727273 L33.8594705,22 L38.3503055,22 L38.3503055,19.3737374 L38.5498982,19.3737374 C38.8492872,19.3737374 38.8492872,19.3737374 38.8492872,19.6767677 L38.8492872,22 L52.4215886,22 C53.3197556,22 54.2179226,21.7979798 54.7169043,21.3939394 L54.7169043,22 L59.0081466,22 C59.9063136,22 60.8044807,21.8989899 61.4032587,21.4949495 L61.4032587,21.4949495 C62.401222,20.8888889 63,19.7777778 63,18.4646465 C63,17.7575758 62.8004073,17.0505051 62.5010183,16.5454545 Z M31.5641548,18.1616162 L29.5682281,18.1616162 L29.5682281,20.5858586 L26.3747454,20.5858586 L24.3788187,18.2626263 L22.2830957,20.5858586 L15.6965377,20.5858586 L15.6965377,13.4141414 L22.3828921,13.4141414 L24.3788187,15.7373737 L26.4745418,13.4141414 L31.7637475,13.4141414 C33.0610998,13.4141414 34.5580448,13.8181818 34.5580448,15.7373737 C34.4582485,17.7575758 33.0610998,18.1616162 31.5641548,18.1616162 Z M41.5437882,17.7575758 C41.7433809,18.0606061 41.8431772,18.4646465 41.8431772,19.0707071 L41.8431772,20.4848485 L40.1466395,20.4848485 L40.1466395,19.5757576 C40.1466395,19.1717172 40.1466395,18.4646465 39.8472505,18.1616162 C39.6476578,17.8585859 39.2484725,17.8585859 38.6496945,17.8585859 L36.8533605,17.8585859 L36.8533605,20.4848485 L35.1568228,20.4848485 L35.1568228,13.3131313 L38.9490835,13.3131313 C39.7474542,13.3131313 40.4460285,13.3131313 40.9450102,13.6161616 C41.4439919,13.9191919 41.8431772,14.4242424 41.8431772,15.2323232 C41.8431772,16.3434343 41.1446029,16.9494949 40.6456212,17.1515152 C41.1446029,17.3535354 41.4439919,17.5555556 41.5437882,17.7575758 Z M48.4297352,14.8282828 L44.5376782,14.8282828 L44.5376782,16.1414141 L48.3299389,16.1414141 L48.3299389,17.5555556 L44.5376782,17.5555556 L44.5376782,18.969697 L48.4297352,18.969697 L48.4297352,20.4848485 L42.8411405,20.4848485 L42.8411405,13.3131313 L48.4297352,13.3131313 L48.4297352,14.8282828 Z M52.6211813,20.4848485 L49.4276986,20.4848485 L49.4276986,18.969697 L52.6211813,18.969697 C52.9205703,18.969697 53.1201629,18.969697 53.3197556,18.7676768 C53.4195519,18.6666667 53.5193483,18.4646465 53.5193483,18.2626263 C53.5193483,18.0606061 53.4195519,17.8585859 53.3197556,17.7575758 C53.2199593,17.6565657 53.0203666,17.5555556 52.7209776,17.5555556 C51.1242363,17.4545455 49.2281059,17.5555556 49.2281059,15.3333333 C49.2281059,14.3232323 49.8268839,13.2121212 51.6232179,13.2121212 L54.9164969,13.2121212 L54.9164969,14.9292929 L51.8228106,14.9292929 C51.5234216,14.9292929 51.3238289,14.9292929 51.1242363,15.030303 C50.9246436,15.1313131 50.9246436,15.3333333 50.9246436,15.5353535 C50.9246436,15.8383838 51.1242363,15.9393939 51.3238289,16.040404 C51.5234216,16.1414141 51.7230143,16.1414141 51.9226069,16.1414141 L52.8207739,16.1414141 C53.7189409,16.1414141 54.3177189,16.3434343 54.7169043,16.7474747 C55.0162933,17.0505051 55.2158859,17.5555556 55.2158859,18.2626263 C55.2158859,19.7777778 54.3177189,20.4848485 52.6211813,20.4848485 Z M61.203666,19.7777778 C60.8044807,20.1818182 60.1059063,20.4848485 59.107943,20.4848485 L55.9144603,20.4848485 L55.9144603,18.969697 L59.107943,18.969697 C59.407332,18.969697 59.6069246,18.969697 59.8065173,18.7676768 C59.9063136,18.6666667 60.00611,18.4646465 60.00611,18.2626263 C60.00611,18.0606061 59.9063136,17.8585859 59.8065173,17.7575758 C59.706721,17.6565657 59.5071283,17.5555556 59.2077393,17.5555556 C57.610998,17.4545455 55.7148676,17.5555556 55.7148676,15.3333333 C55.7148676,14.3232323 56.3136456,13.2121212 58.1099796,13.2121212 L61.4032587,13.2121212 L61.4032587,14.9292929 L58.4093686,14.9292929 C58.1099796,14.9292929 57.910387,14.9292929 57.7107943,15.030303 C57.5112016,15.1313131 57.5112016,15.3333333 57.5112016,15.5353535 C57.5112016,15.8383838 57.610998,15.9393939 57.910387,16.040404 C58.1099796,16.1414141 58.3095723,16.1414141 58.509165,16.1414141 L59.407332,16.1414141 C60.305499,16.1414141 60.904277,16.3434343 61.3034623,16.7474747 C61.4032587,16.7474747 61.4032587,16.8484848 61.4032587,16.8484848 C61.7026477,17.2525253 61.802444,17.7575758 61.802444,18.2626263 C61.802444,18.8686869 61.6028513,19.3737374 61.203666,19.7777778 Z" id="Shape" fill="#0571C1" fill-rule="nonzero"></path>
                    <path d="M39.6866256,15.125 C39.4947238,15 39.206871,15 38.9190183,15 L37,15 L37,17 L38.9190183,17 C39.206871,17 39.4947238,17 39.6866256,16.875 C39.8785275,16.75 39.9744784,16.375 39.9744784,16 C40.0704293,15.5 39.8785275,15.25 39.6866256,15.125 Z" id="SVGCleanerId_1" fill="#228FE0" fill-rule="nonzero"></path>
                    <g id="Group" stroke-width="1" fill="none" fill-rule="evenodd" transform="translate(25.000000, 3.000000)">
                        <path d="M7.575,0.41884058 C7.375,0.320289855 7.075,0.320289855 6.775,0.320289855 L4.775,0.320289855 L4.775,1.89710145 L6.775,1.89710145 C7.075,1.89710145 7.375,1.89710145 7.575,1.79855072 C7.775,1.7 7.875,1.40434783 7.875,1.10869565 C7.975,0.714492754 7.775,0.517391304 7.575,0.41884058 Z" id="Path" fill="#228FE0" fill-rule="nonzero"></path>
                        <polygon id="Path" fill="#228FE0" fill-rule="nonzero" points="19.675 2.78405797 21.975 2.78405797 20.875 0.0246376812"></polygon>
                        <polygon id="Path" fill="#228FE0" fill-rule="nonzero" points="2.675 16.9753623 2.675 11.357971 0.075 14.1173913"></polygon>
                    </g>
                    <path d="M30.96875,15 L29,15 L29,17 L31.0625,17 C31.625,17 32,16.6666667 32,16 C31.90625,15.3333333 31.53125,15 30.96875,15 Z" id="SVGCleanerId_0_1_" fill="#228FE0" fill-rule="nonzero"></path>
                    <path d="M39.6866256,15.125 C39.4947238,15 39.206871,15 38.9190183,15 L37,15 L37,17 L38.9190183,17 C39.206871,17 39.4947238,17 39.6866256,16.875 C39.8785275,16.75 39.9744784,16.375 39.9744784,16 C40.0704293,15.5 39.8785275,15.25 39.6866256,15.125 Z" id="SVGCleanerId_1_1_" fill="#228FE0" fill-rule="nonzero"></path>
                    <g id="Group" stroke-width="1" fill="none" fill-rule="evenodd">
                        <polygon id="Path" fill="#2FABF7" fill-rule="nonzero" points="30.9 20.3657143 29.5 18.8571429 29.5 20.5668571 26.2 20.5668571 24.2 18.2537143 22 20.5668571 15.4 20.5668571 15.4 13.5268571 22.1 13.5268571 24.2 15.84 25.2 14.6331429 22.7 12.1188571 13.9 12.1188571 13.9 21.9748571 22.7 21.9748571 24.2 20.4662857 25.5 21.9748571 30.9 21.9748571"></polygon>
                        <polygon id="Path" fill="#2FABF7" fill-rule="nonzero" points="20.5 9.90628571 19.2 8.49828571 18.6 8.49828571 18.6 7.89485714 17.1 6.38628571 16.1 8.49828571 14.7 8.49828571 12.3 2.96685714 12.3 8.49828571 8.9 8.49828571 8.2 6.98971429 4.8 6.98971429 4.1 8.49828571 2.3 8.49828571 5.3 1.45828571 7.8 1.45828571 10.6 8.19657143 10.6 1.45828571 12.1 1.45828571 10.7 0.0502857143 9.2 0.0502857143 9.2 1.25714286 8.7 0.0502857143 4.3 0.0502857143 2.3 4.77714286 0 9.90628571 2.3 9.90628571 5.2 9.90628571 5.8 8.39771429 7.2 8.39771429 7.9 9.90628571 13.5 9.90628571 13.5 8.69942857 14 9.90628571 16.9 9.90628571 17.4 8.69942857 17.4 9.90628571"></polygon>
                        <polygon id="Path" fill="#2FABF7" fill-rule="nonzero" points="15.9 5.28 14.3 3.67085714 15.5 6.28571429"></polygon>
                    </g>
                    <g id="Group" stroke-width="1" fill="none" fill-rule="evenodd" transform="translate(10.000000, 0.000000)">
                        <path d="M51.4037647,21.4689655 C52.3016471,20.862069 52.9002353,19.8505747 53,18.737931 L51.6032941,17.3218391 C51.7030588,17.6252874 51.8028235,17.9287356 51.8028235,18.3333333 C51.8028235,18.9402299 51.6032941,19.445977 51.2042353,19.8505747 C50.8051765,20.2551724 50.1068235,20.5586207 49.1091765,20.5586207 L45.9167059,20.5586207 L45.9167059,19.0413793 L49.1091765,19.0413793 C49.4084706,19.0413793 49.608,19.0413793 49.8075294,18.8390805 C49.9072941,18.737931 50.0070588,18.5356322 50.0070588,18.3333333 C50.0070588,18.1310345 49.9072941,17.9287356 49.8075294,17.8275862 C49.7077647,17.7264368 49.5082353,17.6252874 49.2089412,17.6252874 C47.6127059,17.5241379 45.7171765,17.6252874 45.7171765,15.4 C45.7171765,14.3885057 46.3157647,13.4781609 47.8122353,13.2758621 L46.7148235,12.1632184 C46.5152941,12.2643678 46.4155294,12.3655172 46.3157647,12.3655172 L46.3157647,11.7586207 L41.7265882,11.7586207 C41.0282353,11.7586207 40.1303529,11.9609195 39.7312941,12.3655172 L39.7312941,11.7586207 L31.5505882,11.7586207 L31.5505882,12.3655172 C30.952,11.8597701 29.8545882,11.7586207 29.3557647,11.7586207 L23.9684706,11.7586207 L23.9684706,12.3655172 C23.4696471,11.8597701 22.2724706,11.7586207 21.6738824,11.7586207 L15.688,11.7586207 L14.2912941,13.2758621 L12.9943529,11.7586207 L11.8969412,11.7586207 L14.8898824,14.7931034 L16.3863529,13.1747126 L21.6738824,13.1747126 C22.9708235,13.1747126 24.4672941,13.5793103 24.4672941,15.5011494 C24.4672941,17.5241379 23.0705882,17.9287356 21.5741176,17.9287356 L19.5788235,17.9287356 L19.5788235,19.445977 L21.0752941,20.9632184 L21.0752941,19.445977 L21.5741176,19.445977 C22.2724706,19.445977 23.1703529,19.445977 23.8687059,19.1425287 L23.8687059,21.8735632 L28.3581176,21.8735632 L28.3581176,19.2436782 L28.5576471,19.2436782 C28.8569412,19.2436782 28.8569412,19.2436782 28.8569412,19.5471264 L28.8569412,21.8735632 L42.4249412,21.8735632 C43.3228235,21.8735632 44.2207059,21.6712644 44.7195294,21.2666667 L44.7195294,21.8735632 L49.0094118,21.8735632 C49.8075294,21.9747126 50.7054118,21.8735632 51.4037647,21.4689655 L51.4037647,21.4689655 Z M31.5505882,17.8275862 C31.7501176,18.1310345 31.8498824,18.5356322 31.8498824,19.1425287 L31.8498824,20.5586207 L30.1538824,20.5586207 L30.1538824,19.6482759 C30.1538824,19.2436782 30.1538824,18.5356322 29.8545882,18.2321839 C29.6550588,17.9287356 29.256,17.9287356 28.6574118,17.9287356 L26.8616471,17.9287356 L26.8616471,20.5586207 L25.1656471,20.5586207 L25.1656471,13.3770115 L28.9567059,13.3770115 C29.7548235,13.3770115 30.4531765,13.3770115 30.952,13.6804598 C31.4508235,13.983908 31.8498824,14.4896552 31.8498824,15.2988506 C31.8498824,16.4114943 31.1515294,17.0183908 30.6527059,17.2206897 C31.1515294,17.4229885 31.4508235,17.6252874 31.5505882,17.8275862 Z M38.4343529,14.8942529 L34.5435294,14.8942529 L34.5435294,16.2091954 L38.3345882,16.2091954 L38.3345882,17.6252874 L34.5435294,17.6252874 L34.5435294,19.0413793 L38.4343529,19.0413793 L38.4343529,20.5586207 L32.8475294,20.5586207 L32.8475294,13.3770115 L38.4343529,13.3770115 L38.4343529,14.8942529 Z M42.6244706,20.5586207 L39.432,20.5586207 L39.432,19.0413793 L42.6244706,19.0413793 C42.9237647,19.0413793 43.1232941,19.0413793 43.3228235,18.8390805 C43.4225882,18.737931 43.5223529,18.5356322 43.5223529,18.3333333 C43.5223529,18.1310345 43.4225882,17.9287356 43.3228235,17.8275862 C43.2230588,17.7264368 43.0235294,17.6252874 42.7242353,17.6252874 C41.128,17.5241379 39.2324706,17.6252874 39.2324706,15.4 C39.2324706,14.3885057 39.8310588,13.2758621 41.6268235,13.2758621 L44.9190588,13.2758621 L44.9190588,14.9954023 L41.8263529,14.9954023 C41.5270588,14.9954023 41.3275294,14.9954023 41.128,15.0965517 C40.9284706,15.1977011 40.9284706,15.4 40.9284706,15.6022989 C40.9284706,15.9057471 41.128,16.0068966 41.3275294,16.108046 C41.5270588,16.2091954 41.7265882,16.2091954 41.9261176,16.2091954 L42.824,16.2091954 C43.7218824,16.2091954 44.3204706,16.4114943 44.7195294,16.816092 C45.0188235,17.1195402 45.2183529,17.6252874 45.2183529,18.3333333 C45.2183529,19.8505747 44.3204706,20.5586207 42.6244706,20.5586207 Z" id="Shape" fill="#228FE0" fill-rule="nonzero"></path>
                        <path d="M47.4131765,15.6022989 C47.4131765,15.9057471 47.5129412,16.0068966 47.8122353,16.108046 C48.0117647,16.2091954 48.2112941,16.2091954 48.4108235,16.2091954 L49.3087059,16.2091954 C49.9072941,16.2091954 50.3063529,16.3103448 50.7054118,16.5126437 L49.2089412,14.9954023 L48.3110588,14.9954023 C48.0117647,14.9954023 47.8122353,14.9954023 47.6127059,15.0965517 C47.5129412,15.1977011 47.4131765,15.4 47.4131765,15.6022989 Z" id="Path" fill="#228FE0" fill-rule="nonzero"></path>
                        <polygon id="Path" fill="#228FE0" fill-rule="nonzero" points="43.9214118 9.53333333 44.2872157 10.0896552 44.4701176 10.0896552"></polygon>
                        <polygon id="Path" fill="#228FE0" fill-rule="nonzero" points="38.4343529 3.97011494 40.1303529 8.11724138 40.1303529 5.68965517"></polygon>
                        <path d="M21.3745882,7.30804598 L21.5741176,7.30804598 C21.7736471,7.30804598 21.7736471,7.30804598 21.7736471,7.61149425 L21.7736471,9.83678161 L28.9567059,9.83678161 L28.9567059,9.22988506 C29.5552941,9.53333333 30.4531765,9.83678161 31.6503529,9.83678161 L34.6432941,9.83678161 L35.2418824,8.2183908 L36.6385882,8.2183908 L37.2371765,9.83678161 L43.0235294,9.83678161 L43.0235294,8.82528736 L41.6268235,7.4091954 L41.6268235,8.52183908 L38.2348235,8.52183908 L37.736,6.90344828 L34.2442353,6.90344828 L33.6456471,8.52183908 L31.7501176,8.52183908 C30.952,8.52183908 29.9543529,8.31954023 29.3557647,7.71264368 C28.7571765,7.10574713 28.4578824,6.29655172 28.4578824,4.9816092 C28.4578824,3.97011494 28.6574118,2.95862069 29.3557647,2.14942529 C29.8545882,1.54252874 30.7524706,1.34022989 31.8498824,1.34022989 L33.4461176,1.34022989 L33.4461176,2.85747126 L31.8498824,2.85747126 C31.2512941,2.85747126 30.952,2.95862069 30.5529412,3.26206897 C30.2536471,3.56551724 30.0541176,4.17241379 30.0541176,4.88045977 C30.0541176,5.68965517 30.1538824,6.1954023 30.5529412,6.6 C30.8522353,6.90344828 31.2512941,7.0045977 31.7501176,7.0045977 L32.4484706,7.0045977 L34.7430588,1.44137931 L35.7407059,1.44137931 L34.344,0.0252873563 L31.7501176,0.0252873563 C30.6527059,0.0252873563 29.7548235,0.227586207 28.9567059,0.632183908 L28.9567059,0.0252873563 L24.5670588,0.0252873563 L24.5670588,0.632183908 C24.0682353,0.227586207 23.4696471,0.0252873563 22.6715294,0.0252873563 L6.60941176,0.0252873563 L5.512,2.55402299 L4.41458824,0.0252873563 L0.0249411765,0.0252873563 L1.42164706,1.44137931 L3.41694118,1.44137931 L5.11294118,5.18390805 L5.71152941,5.7908046 L7.50729412,1.34022989 L10.3007059,1.34022989 L10.3007059,8.52183908 L8.60470588,8.52183908 L8.60470588,2.95862069 L6.90870588,7.0045977 L9.80188235,9.93793103 L21.2748235,9.93793103 L21.3745882,7.30804598 Z M25.9637647,1.34022989 L27.6597647,1.34022989 L27.6597647,8.52183908 L25.9637647,8.52183908 L25.9637647,1.34022989 Z M17.1844706,2.85747126 L13.2936471,2.85747126 L13.2936471,4.17241379 L17.0847059,4.17241379 L17.0847059,5.58850575 L13.2936471,5.58850575 L13.2936471,7.0045977 L17.1844706,7.0045977 L17.1844706,8.52183908 L11.5976471,8.52183908 L11.5976471,1.34022989 L17.1844706,1.34022989 L17.1844706,2.85747126 Z M19.9778824,8.42068966 L18.2818824,8.42068966 L18.2818824,1.23908046 L22.0729412,1.23908046 C22.9708235,1.23908046 23.5694118,1.23908046 24.0682353,1.54252874 C24.5670588,1.84597701 24.8663529,2.35172414 24.8663529,3.16091954 C24.8663529,4.27356322 24.168,4.88045977 23.6691765,5.08275862 C24.0682353,5.18390805 24.3675294,5.48735632 24.4672941,5.68965517 C24.6668235,6.09425287 24.7665882,6.39770115 24.7665882,7.0045977 L24.7665882,8.42068966 L23.0705882,8.42068966 L23.0705882,7.51034483 C23.0705882,7.10574713 23.0705882,6.49885057 22.7712941,6.09425287 C22.6715294,5.89195402 22.3722353,5.89195402 21.7736471,5.89195402 L19.9778824,5.89195402 L19.9778824,8.42068966 L19.9778824,8.42068966 Z" id="Shape" fill="#228FE0" fill-rule="nonzero"></path>
                    </g>
                </g>
            </g>
        </g>
    </g>
</svg>