<svg xmlns="http://www.w3.org/2000/svg" width="876.526" height="330.279" viewBox="0 0 876.526 330.279">
  <g id="Group_36" data-name="Group 36" transform="translate(-97.863 -369.824)">
    <g id="Component_1_1" data-name="Component 1 – 1" transform="translate(370.247 635.115)">
      <path id="Path_77" data-name="Path 77" d="M-271.561-51.307h-5.385L-300.162,0h5.895l6.04-13.463H-260.5L-254.531,0h6.186Zm8.806,32.676H-285.97l11.644-25.981Zm34.932-2.911c0-7.059,4.8-11.79,11.28-11.79,6.623,0,10.407,4.367,10.407,11.353V0h5.6V-23.361c0-8.951-5.313-15.064-14.41-15.064a14.248,14.248,0,0,0-12.881,7.35v-6.55h-5.6V0h5.6Zm78.088-16.083H-155.7L-167.783-6.259l-13.682-31.366h-6.186l17.1,37.479c-2.256,5.313-4.367,7.059-7.714,7.059a11.77,11.77,0,0,1-5.895-1.383L-186.05,9.97a17.1,17.1,0,0,0,8.005,1.892c5.676,0,9.315-2.838,12.517-10.625Zm22.269,4.949h11.935v-4.949h-11.935V-48.978h-5.6v11.353h-5.24v4.949h5.24V-9.97c0,7.641,4.585,10.625,10.625,10.625a14.093,14.093,0,0,0,6.768-1.6v-4.8a11.783,11.783,0,0,1-5.458,1.31c-3.784,0-6.331-1.674-6.331-6.259Zm33.258,11.135c0-7.059,4.8-11.79,11.28-11.79,6.623,0,10.407,4.367,10.407,11.353V0h5.6V-23.361c0-8.951-5.313-15.064-14.41-15.064a14.248,14.248,0,0,0-12.881,7.35V-53.126h-5.6V0h5.6Zm51.6-24.307v-6.186h-6.4v6.186ZM-43.047,0V-37.625h-5.6V0Zm24.453-21.541c0-7.059,4.8-11.79,11.28-11.79,6.623,0,10.407,4.367,10.407,11.353V0H8.7V-23.361c0-8.951-5.313-15.064-14.41-15.064a14.248,14.248,0,0,0-12.881,7.35v-6.55h-5.6V0h5.6ZM62.259-6.55V-37.625h-5.6v6.768a17.64,17.64,0,0,0-14.7-7.569A17.491,17.491,0,0,0,24.271-20.6c0,10.989,8.66,17.684,17.684,17.684,6.914,0,11.5-3.566,14.773-7.933V-6.4c0,8.806-5.385,13.391-13.682,13.391a24.039,24.039,0,0,1-14.482-4.8L26.017,6.55a29.5,29.5,0,0,0,17.1,5.24C54.691,11.79,62.259,5.6,62.259-6.55ZM56.874-20.668c0,7.714-6.7,12.808-13.827,12.808A12.707,12.707,0,0,1,30.02-20.741c0-7.86,5.895-12.736,13.027-12.736S56.874-28.455,56.874-20.668Zm54.727,3.93h29.838a15.235,15.235,0,0,0,.073-1.747c0-11.062-6.4-19.94-17.539-19.94-10.407,0-18.048,8.733-18.048,19.649C105.924-7.059,114.366.873,124.7.873a19.421,19.421,0,0,0,15.5-7.059l-3.493-3.129A15.57,15.57,0,0,1,124.846-4C118.223-4,112.4-8.587,111.6-16.738Zm0-4.148c.728-7.35,5.676-12.808,12.226-12.808,7.5,0,11.426,5.968,12.008,12.808ZM163.271,0V-53.126h-5.6V0Zm44.684-10.552V-10.7c0-6.768-6.259-9.024-12.081-10.771C190.853-23,186.2-24.38,186.2-27.946v-.146c0-3.129,2.838-5.458,7.278-5.458a21.274,21.274,0,0,1,11.135,3.639l2.547-4.221a25.722,25.722,0,0,0-13.536-4.148c-7.423,0-12.808,4.294-12.808,10.771v.146c0,6.914,6.55,8.951,12.445,10.625,4.949,1.383,9.388,2.838,9.388,6.623v.146c0,3.639-3.275,5.968-7.787,5.968a21.994,21.994,0,0,1-13.027-4.8l-2.838,4A25.878,25.878,0,0,0,194.565.728C202.061.728,207.955-3.42,207.955-10.552Zm19.577-6.186H257.37a15.232,15.232,0,0,0,.073-1.747c0-11.062-6.4-19.94-17.539-19.94-10.407,0-18.048,8.733-18.048,19.649C221.855-7.059,230.3.873,240.631.873a19.421,19.421,0,0,0,15.5-7.059l-3.493-3.129A15.57,15.57,0,0,1,240.777-4C234.154-4,228.332-8.587,227.532-16.738Zm0-4.148c.728-7.35,5.676-12.808,12.226-12.808,7.5,0,11.426,5.968,12.008,12.808Zm51.67-5.676-.364.364,1.092,11.79h3.712l.728-7.86c8.3-1.164,15.137-5.676,15.137-14.846,0-8.369-6.477-14.482-16.3-14.482-7.787,0-12.954,3.42-17.1,8.442l3.712,3.566c3.712-4.294,7.86-6.841,13.245-6.841,6.55,0,10.625,4.221,10.625,9.534C293.685-30.711,288.663-26.781,279.2-26.563ZM285.1,0V-7.641h-6.7V0Z" transform="translate(300.162 53.126)" fill="#5e5d5d"/>
    </g>
    <g id="Group_35" data-name="Group 35">
      <g id="Group_34" data-name="Group 34">
        <g id="Group_29" data-name="Group 29">
          <path id="Path_64" data-name="Path 64" d="M378.069,473.283h38.284v48.511l33.565-48.511H490.3L450.967,527.3,497.9,586.826H452.8l-36.449-49.3v49.3H378.069Z" fill="#2e2e2d"/>
          <path id="Path_65" data-name="Path 65" d="M565.3,473.283h83.91v26.746H603.59V515.5h36.186v26.746H603.59V560.08h45.625v26.746H565.3Z" fill="#2e2e2d"/>
          <path id="Path_66" data-name="Path 66" d="M727.891,473.283H811.8v26.746H766.177V515.5H802.36v26.746H766.177V560.08H811.8v26.746h-83.91Z" fill="#2e2e2d"/>
          <path id="Path_67" data-name="Path 67" d="M881.565,573.717l8.391-26.223c9.441,7.077,22.287,14.945,36.446,14.945,9.178,0,13.9-2.1,13.9-8.127,0-5.246-5.768-7.082-19.405-10.227-28.059-6.3-36.45-19.928-36.45-37.237,0-23.074,17.832-36.187,44.318-36.187a75.032,75.032,0,0,1,40.379,11.8l-7.6,24.65c-9.181-5.245-21.5-9.7-33.305-9.7-6.291,0-9.7,2.1-9.7,5.768,0,3.932,3.409,6.032,13.9,8.391,30.155,6.818,41.955,17.828,41.955,39.069,0,29.106-23.073,38.546-47.987,38.546A72.015,72.015,0,0,1,881.565,573.717Z" fill="#2e2e2d"/>
        </g>
        <g id="Group_33" data-name="Group 33">
          <g id="Group_30" data-name="Group 30">
            <path id="Path_68" data-name="Path 68" d="M139.563,447.9V406.061l3.624-5.432h38.488V447.9Z" fill="#bbb9b9"/>
            <path id="Path_69" data-name="Path 69" d="M241.459,447.9V400.629h38.485l3.624,5.432V447.9Z" fill="#a1a1a1"/>
            <path id="Path_70" data-name="Path 70" d="M139.563,406.064l21.74-32.61a8.158,8.158,0,0,1,6.783-3.63h86.958a8.154,8.154,0,0,1,6.783,3.63l21.739,32.61Z" fill="#a1a1a1"/>
            <path id="Path_71" data-name="Path 71" d="M255.046,369.824H211.567v36.24h72l-21.739-32.61A8.159,8.159,0,0,0,255.046,369.824Z" fill="#8b8a88"/>
          </g>
          <g id="Group_32" data-name="Group 32">
            <g id="Group_31" data-name="Group 31">
              <path id="Path_72" data-name="Path 72" d="M109.343,447.9h75.381a4.562,4.562,0,0,1,3.226,7.789L97.863,545.773l.056-86.46A11.425,11.425,0,0,1,109.343,447.9Z" fill="#ffac00"/>
              <path id="Path_73" data-name="Path 73" d="M100.737,588.7l140.8-140.8h69.082a11.407,11.407,0,0,1,8.066,19.473L97.863,688.2l.2-93.062A9.133,9.133,0,0,1,100.737,588.7Z" fill="#ffac00"/>
              <path id="Path_74" data-name="Path 74" d="M313.838,688.2H244.685a4.564,4.564,0,0,1-3.226-1.336l-71.13-71.13,49.283-49.282L321.9,668.721A11.407,11.407,0,0,1,313.838,688.2Z" fill="#ffac00"/>
              <path id="Path_75" data-name="Path 75" d="M180.369,688.2H97.863l52.285-52.284,36.677,36.709A9.125,9.125,0,0,1,180.369,688.2Z" fill="#ffac00"/>
            </g>
            <path id="Path_76" data-name="Path 76" d="M219.612,566.447l28.969,28.969L97.863,688.2Z" fill="#d1d1d1" style="mix-blend-mode: multiply;isolation: isolate"/>
          </g>
        </g>
      </g>
    </g>
  </g>
</svg>
