<?xml version="1.0" encoding="UTF-8"?>
<svg width="256px" height="154px" viewBox="0 0 256 154" version="1.1" xmlns="http://www.w3.org/2000/svg" xmlns:xlink="http://www.w3.org/1999/xlink">
    <!-- Generator: Sketch 63.1 (92452) - https://sketch.com -->
    <title>mastercard</title>
    <desc>Created with Sketch.</desc>
    <g id="Page-1" stroke="none" stroke-width="1" fill="none" fill-rule="evenodd">
        <g id="mastercard" fill-rule="nonzero">
            <path d="M255.315789,77 C255.315789,119.147368 221.273684,153.594737 178.721053,153.594737 C136.573684,153.594737 102.126316,119.147368 102.126316,77 L102.126316,77 C102.126316,34.8526316 136.168421,0.405263158 178.315789,0.405263158 C221.273684,0.405263158 255.315789,34.8526316 255.315789,77 L255.315789,77 Z" id="Path" fill="#FFB600"></path>
            <path d="M178.721053,0.405263158 C220.868421,0.405263158 255.315789,34.8526316 255.315789,77 L255.315789,77 C255.315789,119.147368 221.273684,153.594737 178.721053,153.594737 C136.573684,153.594737 102.126316,119.147368 102.126316,77" id="Path" fill="#F7981D"></path>
            <path d="M178.721053,0.405263158 C220.868421,0.405263158 255.315789,34.8526316 255.315789,77 L255.315789,77 C255.315789,119.147368 221.273684,153.594737 178.721053,153.594737" id="Path" fill="#FF8500"></path>
            <path d="M75.7842105,0.405263158 C34.0421053,0.810526316 0,34.8526316 0,77 C0,119.147368 34.0421053,153.594737 76.5947368,153.594737 C96.4526316,153.594737 114.284211,145.894737 128.063158,133.736842 L128.063158,133.736842 L128.063158,133.736842 C130.9,131.305263 133.331579,128.468421 135.763158,125.631579 L119.957895,125.631579 C117.931579,123.2 115.905263,120.363158 114.284211,117.931579 L141.436842,117.931579 C143.057895,115.5 144.678947,112.663158 145.894737,109.826316 L109.826316,109.826316 C108.610526,107.394737 107.394737,104.557895 106.584211,101.721053 L148.731579,101.721053 C151.163158,94.0210526 152.784211,85.9157895 152.784211,77.4052632 C152.784211,71.7315789 151.973684,66.4631579 151.163158,61.1947368 L104.152632,61.1947368 C104.557895,58.3578947 105.368421,55.9263158 106.178947,53.0894737 L148.326316,53.0894737 C147.515789,50.2526316 146.3,47.4157895 145.084211,44.9842105 L109.421053,44.9842105 C110.636842,42.1473684 112.257895,39.7157895 113.878947,36.8789474 L141.031579,36.8789474 C139.410526,34.0421053 137.384211,31.2052632 134.952632,28.7736842 L119.957895,28.7736842 C122.389474,25.9368421 124.821053,23.5052632 127.657895,21.0736842 C114.284211,8.51052632 96.0473684,1.21578947 76.1894737,1.21578947 C76.1894737,0.405263158 76.1894737,0.405263158 75.7842105,0.405263158 Z" id="Path" fill="#FF5050"></path>
            <path d="M0,77 C0,119.147368 34.0421053,153.594737 76.5947368,153.594737 C96.4526316,153.594737 114.284211,145.894737 128.063158,133.736842 L128.063158,133.736842 L128.063158,133.736842 C130.9,131.305263 133.331579,128.468421 135.763158,125.631579 L119.957895,125.631579 C117.931579,123.2 115.905263,120.363158 114.284211,117.931579 L141.436842,117.931579 C143.057895,115.5 144.678947,112.663158 145.894737,109.826316 L109.826316,109.826316 C108.610526,107.394737 107.394737,104.557895 106.584211,101.721053 L148.731579,101.721053 C151.163158,94.0210526 152.784211,85.9157895 152.784211,77.4052632 C152.784211,71.7315789 151.973684,66.4631579 151.163158,61.1947368 L104.152632,61.1947368 C104.557895,58.3578947 105.368421,55.9263158 106.178947,53.0894737 L148.326316,53.0894737 C147.515789,50.2526316 146.3,47.4157895 145.084211,44.9842105 L109.421053,44.9842105 C110.636842,42.1473684 112.257895,39.7157895 113.878947,36.8789474 L141.031579,36.8789474 C139.410526,34.0421053 137.384211,31.2052632 134.952632,28.7736842 L119.957895,28.7736842 C122.389474,25.9368421 124.821053,23.5052632 127.657895,21.0736842 C114.284211,8.51052632 96.0473684,1.21578947 76.1894737,1.21578947 L75.7842105,1.21578947" id="Path" fill="#E52836"></path>
            <path d="M76.5947368,153.594737 C96.4526316,153.594737 114.284211,145.894737 128.063158,133.736842 L128.063158,133.736842 L128.063158,133.736842 C130.9,131.305263 133.331579,128.468421 135.763158,125.631579 L119.957895,125.631579 C117.931579,123.2 115.905263,120.363158 114.284211,117.931579 L141.436842,117.931579 C143.057895,115.5 144.678947,112.663158 145.894737,109.826316 L109.826316,109.826316 C108.610526,107.394737 107.394737,104.557895 106.584211,101.721053 L148.731579,101.721053 C151.163158,94.0210526 152.784211,85.9157895 152.784211,77.4052632 C152.784211,71.7315789 151.973684,66.4631579 151.163158,61.1947368 L104.152632,61.1947368 C104.557895,58.3578947 105.368421,55.9263158 106.178947,53.0894737 L148.326316,53.0894737 C147.515789,50.2526316 146.3,47.4157895 145.084211,44.9842105 L109.421053,44.9842105 C110.636842,42.1473684 112.257895,39.7157895 113.878947,36.8789474 L141.031579,36.8789474 C139.410526,34.0421053 137.384211,31.2052632 134.952632,28.7736842 L119.957895,28.7736842 C122.389474,25.9368421 124.821053,23.5052632 127.657895,21.0736842 C114.284211,8.51052632 96.0473684,1.21578947 76.1894737,1.21578947 L75.7842105,1.21578947" id="Path" fill="#CB2026"></path>
            <g id="Group" transform="translate(7.092105, 56.736842)" fill="#FFFFFF">
                <path d="M96.6552632,39.7157895 L97.8710526,32.8263158 C97.4657895,32.8263158 96.6552632,33.2315789 95.8447368,33.2315789 C93.0078947,33.2315789 92.6026316,31.6105263 93.0078947,30.8 L95.4394737,16.6157895 L99.8973684,16.6157895 L101.113158,8.91578947 L97.0605263,8.91578947 L97.8710526,4.05263158 L89.7657895,4.05263158 C89.7657895,4.05263158 84.9026316,30.8 84.9026316,34.0421053 C84.9026316,38.9052632 87.7394737,40.9315789 91.3868421,40.9315789 C93.8184211,40.9315789 95.8447368,40.1210526 96.6552632,39.7157895 Z" id="Path"></path>
                <path d="M99.4921053,26.7473684 C99.4921053,38.0947368 107.192105,40.9315789 113.676316,40.9315789 C119.755263,40.9315789 122.186842,39.7157895 122.186842,39.7157895 L123.807895,32.0157895 C123.807895,32.0157895 119.35,34.0421053 115.297368,34.0421053 C106.381579,34.0421053 108.002632,27.5578947 108.002632,27.5578947 L124.618421,27.5578947 C124.618421,27.5578947 125.834211,22.2894737 125.834211,20.2631579 C125.834211,14.9947368 122.997368,8.51052632 114.081579,8.51052632 C105.571053,7.7 99.4921053,16.6157895 99.4921053,26.7473684 Z M113.676316,14.9947368 C118.134211,14.9947368 117.323684,20.2631579 117.323684,20.6684211 L108.407895,20.6684211 C108.407895,20.2631579 109.218421,14.9947368 113.676316,14.9947368 Z" id="Shape"></path>
                <path d="M165.144737,39.7157895 L166.765789,30.8 C166.765789,30.8 162.713158,32.8263158 159.876316,32.8263158 C154.202632,32.8263158 151.771053,28.3684211 151.771053,23.5052632 C151.771053,13.7789474 156.634211,8.51052632 162.307895,8.51052632 C166.360526,8.51052632 169.602632,10.9421053 169.602632,10.9421053 L170.818421,2.43157895 C170.818421,2.43157895 165.955263,0.405263158 161.497368,0.405263158 C152.176316,0.405263158 142.855263,8.51052632 142.855263,23.9105263 C142.855263,34.0421053 147.718421,40.9315789 157.444737,40.9315789 C160.686842,40.9315789 165.144737,39.7157895 165.144737,39.7157895 Z" id="Path"></path>
                <path d="M52.0763158,7.7 C46.4026316,7.7 42.35,9.32105263 42.35,9.32105263 L41.1342105,16.2105263 C41.1342105,16.2105263 44.7815789,14.5894737 50.05,14.5894737 C52.8868421,14.5894737 55.3184211,14.9947368 55.3184211,17.4263158 C55.3184211,19.0473684 54.9131579,19.4526316 54.9131579,19.4526316 C54.9131579,19.4526316 52.4815789,19.4526316 51.2657895,19.4526316 C44.3763158,19.4526316 36.6763158,22.2894737 36.6763158,31.6105263 C36.6763158,38.9052632 41.5394737,40.5263158 44.3763158,40.5263158 C50.05,40.5263158 52.4815789,36.8789474 52.8868421,36.8789474 L52.4815789,40.1210526 L59.7763158,40.1210526 L63.0184211,17.8315789 C63.0184211,8.10526316 54.9131579,7.7 52.0763158,7.7 Z M53.6973684,25.9368421 C53.6973684,27.1526316 52.8868421,33.6368421 48.0236842,33.6368421 C45.5921053,33.6368421 44.7815789,31.6105263 44.7815789,30.3947368 C44.7815789,28.3684211 45.9973684,25.5315789 52.0763158,25.5315789 C53.2921053,25.9368421 53.6973684,25.9368421 53.6973684,25.9368421 Z" id="Shape"></path>
                <path d="M70.7184211,40.5263158 C72.7447368,40.5263158 82.8763158,40.9315789 82.8763158,29.9894737 C82.8763158,19.8578947 73.15,21.8842105 73.15,17.8315789 C73.15,15.8052632 74.7710526,14.9947368 77.6078947,14.9947368 C78.8236842,14.9947368 83.2815789,15.4 83.2815789,15.4 L84.4973684,8.10526316 C84.4973684,8.10526316 81.6605263,7.29473684 76.7973684,7.29473684 C70.7184211,7.29473684 64.6394737,9.72631579 64.6394737,17.8315789 C64.6394737,27.1526316 74.7710526,26.3421053 74.7710526,29.9894737 C74.7710526,32.4210526 71.9342105,32.8263158 69.9078947,32.8263158 C66.2605263,32.8263158 62.6131579,31.6105263 62.6131579,31.6105263 L61.3973684,38.9052632 C61.8026316,39.7157895 63.8289474,40.5263158 70.7184211,40.5263158 Z" id="Path"></path>
                <path d="M232.418421,1.21578947 L230.797368,12.1578947 C230.797368,12.1578947 227.555263,8.10526316 223.097368,8.10526316 C215.802632,8.10526316 209.318421,17.0210526 209.318421,27.5578947 C209.318421,34.0421053 212.560526,40.9315789 219.45,40.9315789 C224.313158,40.9315789 227.15,37.6894737 227.15,37.6894737 L226.744737,40.5263158 L234.85,40.5263158 L240.928947,1.62105263 L232.418421,1.21578947 Z M228.771053,22.6947368 C228.771053,27.1526316 226.744737,32.8263158 222.286842,32.8263158 C219.45,32.8263158 217.828947,30.3947368 217.828947,26.3421053 C217.828947,19.8578947 220.665789,15.8052632 224.313158,15.8052632 C227.15,15.8052632 228.771053,17.8315789 228.771053,22.6947368 Z" id="Shape"></path>
                <polygon id="Path" points="7.90263158 40.1210526 12.7657895 10.9421053 13.5763158 40.1210526 19.25 40.1210526 29.7868421 10.9421053 25.3289474 40.1210526 33.8394737 40.1210526 40.3236842 1.21578947 26.95 1.21578947 18.8447368 25.1263158 18.4394737 1.21578947 6.68684211 1.21578947 0.202631579 40.1210526"></polygon>
                <path d="M133.534211,40.1210526 C135.965789,26.7473684 136.371053,15.8052632 142.044737,17.8315789 C142.855263,12.5631579 144.071053,10.5368421 144.881579,8.51052632 C144.881579,8.51052632 144.476316,8.51052632 143.260526,8.51052632 C139.613158,8.51052632 136.776316,13.3736842 136.776316,13.3736842 L137.586842,8.91578947 L129.886842,8.91578947 L124.618421,40.5263158 L133.534211,40.5263158 L133.534211,40.1210526 Z" id="Path"></path>
                <path d="M183.786842,7.7 C178.113158,7.7 174.060526,9.32105263 174.060526,9.32105263 L172.844737,16.2105263 C172.844737,16.2105263 176.492105,14.5894737 181.760526,14.5894737 C184.597368,14.5894737 187.028947,14.9947368 187.028947,17.4263158 C187.028947,19.0473684 186.623684,19.4526316 186.623684,19.4526316 C186.623684,19.4526316 184.192105,19.4526316 182.976316,19.4526316 C176.086842,19.4526316 168.386842,22.2894737 168.386842,31.6105263 C168.386842,38.9052632 173.25,40.5263158 176.086842,40.5263158 C181.760526,40.5263158 184.192105,36.8789474 184.597368,36.8789474 L184.192105,40.1210526 L191.486842,40.1210526 L194.728947,17.8315789 C195.134211,8.10526316 186.623684,7.7 183.786842,7.7 Z M185.813158,25.9368421 C185.813158,27.1526316 185.002632,33.6368421 180.139474,33.6368421 C177.707895,33.6368421 176.897368,31.6105263 176.897368,30.3947368 C176.897368,28.3684211 178.113158,25.5315789 184.192105,25.5315789 C185.407895,25.9368421 185.407895,25.9368421 185.813158,25.9368421 Z" id="Shape"></path>
                <path d="M201.618421,40.1210526 C204.05,26.7473684 204.455263,15.8052632 210.128947,17.8315789 C210.939474,12.5631579 212.155263,10.5368421 212.965789,8.51052632 C212.965789,8.51052632 212.560526,8.51052632 211.344737,8.51052632 C207.697368,8.51052632 204.860526,13.3736842 204.860526,13.3736842 L205.671053,8.91578947 L197.971053,8.91578947 L192.702632,40.5263158 L201.618421,40.5263158 L201.618421,40.1210526 Z" id="Path"></path>
            </g>
            <g id="Group" transform="translate(7.092105, 56.736842)" fill="#DCE5E5">
                <path d="M84.0921053,34.0421053 C84.0921053,38.9052632 86.9289474,40.9315789 90.5763158,40.9315789 C93.4131579,40.9315789 95.8447368,40.1210526 96.6552632,39.7157895 L97.8710526,32.8263158 C97.4657895,32.8263158 96.6552632,33.2315789 95.8447368,33.2315789 C93.0078947,33.2315789 92.6026316,31.6105263 93.0078947,30.8 L95.4394737,16.6157895 L99.8973684,16.6157895 L101.113158,8.91578947 L97.0605263,8.91578947 L97.8710526,4.05263158" id="Path"></path>
                <path d="M103.544737,26.7473684 C103.544737,38.0947368 107.192105,40.9315789 113.676316,40.9315789 C119.755263,40.9315789 122.186842,39.7157895 122.186842,39.7157895 L123.807895,32.0157895 C123.807895,32.0157895 119.35,34.0421053 115.297368,34.0421053 C106.381579,34.0421053 108.002632,27.5578947 108.002632,27.5578947 L124.618421,27.5578947 C124.618421,27.5578947 125.834211,22.2894737 125.834211,20.2631579 C125.834211,14.9947368 122.997368,8.51052632 114.081579,8.51052632 C105.571053,7.7 103.544737,16.6157895 103.544737,26.7473684 Z M113.676316,14.9947368 C118.134211,14.9947368 118.944737,20.2631579 118.944737,20.6684211 L108.407895,20.6684211 C108.407895,20.2631579 109.218421,14.9947368 113.676316,14.9947368 Z" id="Shape"></path>
                <path d="M165.144737,39.7157895 L166.765789,30.8 C166.765789,30.8 162.713158,32.8263158 159.876316,32.8263158 C154.202632,32.8263158 151.771053,28.3684211 151.771053,23.5052632 C151.771053,13.7789474 156.634211,8.51052632 162.307895,8.51052632 C166.360526,8.51052632 169.602632,10.9421053 169.602632,10.9421053 L170.818421,2.43157895 C170.818421,2.43157895 165.955263,0.405263158 161.497368,0.405263158 C152.176316,0.405263158 146.907895,8.51052632 146.907895,23.9105263 C146.907895,34.0421053 147.718421,40.9315789 157.444737,40.9315789 C160.686842,40.9315789 165.144737,39.7157895 165.144737,39.7157895 Z" id="Path"></path>
                <path d="M41.1342105,16.6157895 C41.1342105,16.6157895 44.7815789,14.9947368 50.05,14.9947368 C52.8868421,14.9947368 55.3184211,15.4 55.3184211,17.8315789 C55.3184211,19.4526316 54.9131579,19.8578947 54.9131579,19.8578947 C54.9131579,19.8578947 52.4815789,19.8578947 51.2657895,19.8578947 C44.3763158,19.8578947 36.6763158,22.6947368 36.6763158,32.0157895 C36.6763158,39.3105263 41.5394737,40.9315789 44.3763158,40.9315789 C50.05,40.9315789 52.4815789,37.2842105 52.8868421,37.2842105 L52.4815789,40.5263158 L59.7763158,40.5263158 L63.0184211,18.2368421 C63.0184211,8.91578947 54.9131579,8.51052632 51.6710526,8.51052632 M57.75,25.9368421 C57.75,27.1526316 52.8868421,33.6368421 48.0236842,33.6368421 C45.5921053,33.6368421 44.7815789,31.6105263 44.7815789,30.3947368 C44.7815789,28.3684211 45.9973684,25.5315789 52.0763158,25.5315789 C53.2921053,25.9368421 57.75,25.9368421 57.75,25.9368421 Z" id="Shape"></path>
                <path d="M61.8026316,39.7157895 C61.8026316,39.7157895 64.2342105,40.5263158 71.1236842,40.5263158 C73.15,40.5263158 83.2815789,40.9315789 83.2815789,29.9894737 C83.2815789,19.8578947 73.5552632,21.8842105 73.5552632,17.8315789 C73.5552632,15.8052632 75.1763158,14.9947368 78.0131579,14.9947368 C79.2289474,14.9947368 83.6868421,15.4 83.6868421,15.4 L84.9026316,8.10526316 C84.9026316,8.10526316 82.0657895,7.29473684 77.2026316,7.29473684 C71.1236842,7.29473684 69.0973684,9.72631579 69.0973684,17.8315789 C69.0973684,27.1526316 75.1763158,26.3421053 75.1763158,29.9894737 C75.1763158,32.4210526 72.3394737,32.8263158 70.3131579,32.8263158" id="Path"></path>
                <path d="M230.797368,12.1578947 C230.797368,12.1578947 227.555263,8.10526316 223.097368,8.10526316 C215.802632,8.10526316 213.371053,17.0210526 213.371053,27.5578947 C213.371053,34.0421053 212.560526,40.9315789 219.45,40.9315789 C224.313158,40.9315789 227.15,37.6894737 227.15,37.6894737 L226.744737,40.5263158 L234.85,40.5263158 L240.928947,1.62105263 M230.392105,22.6947368 C230.392105,27.1526316 226.744737,32.8263158 222.286842,32.8263158 C219.45,32.8263158 217.828947,30.3947368 217.828947,26.3421053 C217.828947,19.8578947 220.665789,15.8052632 224.313158,15.8052632 C227.15,15.8052632 230.392105,17.8315789 230.392105,22.6947368 Z" id="Shape"></path>
                <polygon id="Path" points="7.90263158 40.1210526 12.7657895 10.9421053 13.5763158 40.1210526 19.25 40.1210526 29.7868421 10.9421053 25.3289474 40.1210526 33.8394737 40.1210526 40.3236842 1.21578947 30.1921053 1.21578947 18.8447368 25.1263158 18.4394737 1.21578947 13.9815789 1.21578947 0.202631579 40.1210526"></polygon>
                <path d="M125.023684,40.1210526 L133.534211,40.1210526 C135.965789,26.7473684 136.371053,15.8052632 142.044737,17.8315789 C142.855263,12.5631579 144.071053,10.5368421 144.881579,8.51052632 C144.881579,8.51052632 144.476316,8.51052632 143.260526,8.51052632 C139.613158,8.51052632 136.776316,13.3736842 136.776316,13.3736842 L137.586842,8.91578947" id="Path"></path>
                <path d="M172.844737,16.6157895 C172.844737,16.6157895 176.492105,14.9947368 181.760526,14.9947368 C184.597368,14.9947368 187.028947,15.4 187.028947,17.8315789 C187.028947,19.4526316 186.623684,19.8578947 186.623684,19.8578947 C186.623684,19.8578947 184.192105,19.8578947 182.976316,19.8578947 C176.086842,19.8578947 168.386842,22.6947368 168.386842,32.0157895 C168.386842,39.3105263 173.25,40.9315789 176.086842,40.9315789 C181.760526,40.9315789 184.192105,37.2842105 184.597368,37.2842105 L184.192105,40.5263158 L191.486842,40.5263158 L194.728947,18.2368421 C194.728947,8.91578947 186.623684,8.51052632 183.381579,8.51052632 M189.460526,25.9368421 C189.460526,27.1526316 184.597368,33.6368421 179.734211,33.6368421 C177.302632,33.6368421 176.492105,31.6105263 176.492105,30.3947368 C176.492105,28.3684211 177.707895,25.5315789 183.786842,25.5315789 C185.407895,25.9368421 189.460526,25.9368421 189.460526,25.9368421 Z" id="Shape"></path>
                <path d="M193.107895,40.1210526 L201.618421,40.1210526 C204.05,26.7473684 204.455263,15.8052632 210.128947,17.8315789 C210.939474,12.5631579 212.155263,10.5368421 212.965789,8.51052632 C212.965789,8.51052632 212.560526,8.51052632 211.344737,8.51052632 C207.697368,8.51052632 204.860526,13.3736842 204.860526,13.3736842 L205.671053,8.91578947" id="Path"></path>
            </g>
        </g>
    </g>
</svg>