<?xml version="1.0" encoding="UTF-8"?>
<svg width="70px" height="30px" viewBox="0 0 70 30" version="1.1" xmlns="http://www.w3.org/2000/svg" xmlns:xlink="http://www.w3.org/1999/xlink">
    <!-- Generator: Sketch 63.1 (92452) - https://sketch.com -->
    <title>visa + american-express + mastercard Mask</title>
    <desc>Created with Sketch.</desc>
    <defs>
        <rect id="path-1" x="0" y="0" width="70" height="30"></rect>
    </defs>
    <g id="Page-1" stroke="none" stroke-width="1" fill="none" fill-rule="evenodd">
        <g id="visa-+-american-express-+-mastercard-Mask">
            <mask id="mask-2" fill="white">
                <use xlink:href="#path-1"></use>
            </mask>
            <use id="Mask" fill="#FFFFFF" xlink:href="#path-1"></use>
            <g id="visa" mask="url(#mask-2)">
                <g transform="translate(2.000000, 5.000000)">
                    <polygon id="Path" fill="#3C58BF" fill-rule="nonzero" points="24 20 27.1219512 1 32 1 28.9756098 20"></polygon>
                    <polygon id="Path" fill="#293688" fill-rule="nonzero" points="24 20 28 1 32 1 28.9756098 20"></polygon>
                    <path d="M48,0.842105263 C47.0196078,0.421052632 45.4509804,0 43.4901961,0 C38.5882353,0 35.0588235,2.63157895 35.0588235,6.42105263 C35.0588235,9.26315789 37.5098039,10.7368421 39.4705882,11.6842105 C41.4313725,12.6315789 42.0196078,13.2631579 42.0196078,14.1052632 C42.0196078,15.3684211 40.4509804,16 39.0784314,16 C37.1176471,16 36.0392157,15.6842105 34.372549,14.9473684 L33.6862745,14.6315789 L33,18.9473684 C34.1764706,19.4736842 36.3333333,20 38.5882353,20 C43.7843137,20 47.2156863,17.3684211 47.2156863,13.3684211 C47.2156863,11.1578947 45.9411765,9.47368421 43,8.10526316 C41.2352941,7.15789474 40.1568627,6.63157895 40.1568627,5.68421053 C40.1568627,4.84210526 41.0392157,4 43,4 C44.6666667,4 45.8431373,4.31578947 46.7254902,4.73684211 L47.2156863,4.94736842 L48,0.842105263 L48,0.842105263 Z" id="Path" fill="#3C58BF" fill-rule="nonzero"></path>
                    <path d="M48,0.842105263 C47.0196078,0.421052632 45.4509804,0 43.4901961,0 C38.5882353,0 35.9411765,2.63157895 35.9411765,6.42105263 C35.9411765,9.26315789 37.5098039,10.7368421 39.4705882,11.6842105 C41.4313725,12.6315789 42.0196078,13.2631579 42.0196078,14.1052632 C42.0196078,15.3684211 40.4509804,16 39.0784314,16 C37.1176471,16 36.0392157,15.6842105 34.372549,14.9473684 L33.6862745,14.6315789 L33,18.9473684 C34.1764706,19.4736842 36.3333333,20 38.5882353,20 C43.7843137,20 47.2156863,17.3684211 47.2156863,13.3684211 C47.2156863,11.1578947 45.9411765,9.47368421 43,8.10526316 C41.2352941,7.15789474 40.1568627,6.63157895 40.1568627,5.68421053 C40.1568627,4.84210526 41.0392157,4 43,4 C44.6666667,4 45.8431373,4.31578947 46.7254902,4.73684211 L47.2156863,4.94736842 L48,0.842105263 L48,0.842105263 Z" id="Path" fill="#293688" fill-rule="nonzero"></path>
                    <path d="M56.543956,1 C55.2912088,1 54.3516484,1.10555556 53.8296703,2.37222222 L46,20 L51.6373626,20 L52.6813187,16.8333333 L59.3626374,16.8333333 L59.989011,20 L65,20 L60.6153846,1 L56.543956,1 Z M54.1428571,13.6666667 C54.456044,12.7166667 56.2307692,8.07222222 56.2307692,8.07222222 C56.2307692,8.07222222 56.6483516,6.91111111 56.9615385,6.17222222 L57.2747253,7.96666667 C57.2747253,7.96666667 58.3186813,12.7166667 58.5274725,13.7722222 L54.1428571,13.7722222 L54.1428571,13.6666667 Z" id="Shape" fill="#3C58BF" fill-rule="nonzero"></path>
                    <path d="M57.7967033,1 C56.543956,1 55.6043956,1.10555556 55.0824176,2.37222222 L46,20 L51.6373626,20 L52.6813187,16.8333333 L59.3626374,16.8333333 L59.989011,20 L65,20 L60.6153846,1 L57.7967033,1 Z M54.1428571,13.6666667 C54.5604396,12.6111111 56.2307692,8.07222222 56.2307692,8.07222222 C56.2307692,8.07222222 56.6483516,6.91111111 56.9615385,6.17222222 L57.2747253,7.96666667 C57.2747253,7.96666667 58.3186813,12.7166667 58.5274725,13.7722222 L54.1428571,13.7722222 L54.1428571,13.6666667 Z" id="Shape" fill="#293688" fill-rule="nonzero"></path>
                    <path d="M13.9166667,14.1944444 L13.3888889,11.45 C12.4388889,8.28333333 9.37777778,4.8 6,3.11111111 L10.75,20 L16.45,20 L25,1 L19.3,1 L13.9166667,14.1944444 Z" id="Path" fill="#3C58BF" fill-rule="nonzero"></path>
                    <path d="M13.9166667,14.1944444 L13.3888889,11.45 C12.4388889,8.28333333 9.37777778,4.8 6,3.11111111 L10.75,20 L16.45,20 L25,1 L20.3555556,1 L13.9166667,14.1944444 Z" id="Path" fill="#293688" fill-rule="nonzero"></path>
                    <path d="M0,1 L0.940298507,1.2 C7.62686567,2.7 12.2238806,6.5 14,11 L12.119403,2.5 C11.8059701,1.3 10.8656716,1 9.71641791,1 L0,1 L0,1 Z" id="Path" fill="#FFBC00" fill-rule="nonzero"></path>
                    <path d="M0,1 L0,1 C6.68656716,2.51515152 12.2238806,6.45454545 14,11 L12.2238806,3.82828283 C11.9104478,2.61616162 10.8656716,1.90909091 9.71641791,1.90909091 L0,1 Z" id="Path" fill="#F7981D" fill-rule="nonzero"></path>
                    <path d="M0,1 L0,1 C6.68656716,2.51515152 12.2238806,6.45454545 14,11 L12.7462687,7.06060606 C12.4328358,5.84848485 12.0149254,4.63636364 10.5522388,4.13131313 L0,1 Z" id="Path" fill="#ED7C00" fill-rule="nonzero"></path>
                    <g id="Group" stroke-width="1" fill="none" fill-rule="evenodd" transform="translate(6.000000, 3.000000)">
                        <path d="M12.9486726,10.2766917 L9.39823009,6.8 L7.72743363,10.6857143 L7.30973451,8.12932331 C6.3699115,5.06165414 3.34159292,1.68721805 0,0.0511278195 L4.69911504,16.4120301 L10.3380531,16.4120301 L12.9486726,10.2766917 Z" id="Path" fill="#051244" fill-rule="nonzero"></path>
                        <polygon id="Path" fill="#051244" fill-rule="nonzero" points="22.660177 16.4120301 18.1699115 11.912782 17.3345133 16.4120301"></polygon>
                        <path d="M34.6690265,10.0721805 L34.6690265,10.0721805 C35.0867257,10.481203 35.2955752,10.7879699 35.1911504,11.1969925 C35.1911504,12.4240602 33.520354,13.037594 32.0584071,13.037594 C29.9699115,13.037594 28.8212389,12.7308271 27.0460177,12.0150376 L26.3150442,11.7082707 L25.5840708,15.9007519 C26.8371681,16.4120301 29.1345133,16.9233083 31.5362832,16.9233083 C34.8778761,16.9233083 37.5929204,16.0030075 39.159292,14.3669173 L34.6690265,10.0721805 Z" id="Path" fill="#051244" fill-rule="nonzero"></path>
                        <path d="M40.7256637,16.4120301 L45.6336283,16.4120301 L46.6778761,13.3443609 L53.3610619,13.3443609 L53.9876106,16.4120301 L59,16.4120301 L57.2247788,8.94736842 L50.959292,3.01654135 L51.2725664,4.65263158 C51.2725664,4.65263158 52.3168142,9.25413534 52.5256637,10.2766917 L48.139823,10.2766917 C48.5575221,9.25413534 50.2283186,4.85714286 50.2283186,4.85714286 C50.2283186,4.85714286 50.6460177,3.73233083 50.959292,3.01654135" id="Path" fill="#051244" fill-rule="nonzero"></path>
                    </g>
                </g>
            </g>
        </g>
    </g>
</svg>